<svg width="12" height="12" viewBox="0 0 12 12" fill="none" xmlns="http://www.w3.org/2000/svg">
<path d="M6.02344 0C2.72789 0 0 2.68102 0 5.97656C0 9.27211 2.72789 12 6.02344 12C9.31898 12 12 9.27211 12 5.97656C12 2.68102 9.31898 0 6.02344 0ZM9.1875 6.67969H6.72656V9.1875C6.72656 9.57516 6.41086 9.89062 6.02344 9.89062C5.63578 9.89062 5.32031 9.57516 5.32031 9.1875V6.67969H2.8125C2.42484 6.67969 2.10938 6.36422 2.10938 5.97656C2.10938 5.58891 2.42484 5.27344 2.8125 5.27344H5.32031V2.8125C5.32031 2.42484 5.63578 2.10938 6.02344 2.10938C6.41086 2.10938 6.72656 2.42484 6.72656 2.8125V5.27344H9.1875C9.57492 5.27344 9.89062 5.58891 9.89062 5.97656C9.89062 6.36422 9.57492 6.67969 9.1875 6.67969Z" fill="#E9572F"/>
</svg>
