<svg width="375" height="110" viewBox="0 0 375 110" fill="none" xmlns="http://www.w3.org/2000/svg">
<g clip-path="url(#clip0)">
<path d="M0 0H375V110H32C14.3269 110 0 95.6731 0 78V0Z" fill="#E9572F"/>
<path opacity="0.5" d="M105.915 -1.11039H-306.218C-306.218 -1.11039 -483.588 -74.7137 -387.424 68.6588C-291.259 212.031 -47.2761 148.86 105.915 101.063C259.106 53.2668 105.915 -1.11039 105.915 -1.11039Z" fill="#D35132"/>
<path opacity="0.8" d="M587.889 -58.0051H212.889C212.889 -58.0051 125.389 -95.505 212.889 34.9949C300.389 165.495 373.389 49.9949 587.889 34.9949C802.389 19.995 587.889 -58.0051 587.889 -58.0051Z" fill="#D35132"/>
<path d="M16.7146 38.5178C17.552 37.8137 18.8334 37.8975 19.5605 38.7645L19.9975 39.2815L16.9004 41.8802L16.4831 41.3651C15.7655 40.5116 15.8563 39.2369 16.7146 38.5178Z" fill="white"/>
<path d="M25.4616 45.7466L25.6921 46.0194C25.8922 46.2589 26.0363 46.5452 26.1086 46.8485L26.7351 49.4701C26.7943 49.7182 26.7081 49.9788 26.5127 50.1427C26.3225 50.3025 26.0542 50.3489 25.8118 50.2453L23.3383 49.1727C23.0521 49.0483 22.7954 48.8569 22.5954 48.6193L22.3641 48.3457L25.4616 45.7466Z" fill="white"/>
<path d="M20.867 40.3103L24.5921 44.7178L21.4947 47.3168L17.7699 42.909L20.867 40.3103Z" fill="white"/>
<path d="M22.1085 32.9875L24.6682 30.5553C24.9102 30.3259 25.2079 30.1908 25.5217 30.103V34.0429H21.5213C21.6049 33.6427 21.8088 33.2719 22.1085 32.9875Z" fill="white"/>
<path d="M27.4194 46.5353C27.2989 46.0313 27.0588 45.5542 26.7258 45.1554L21.4786 38.9466V35.3906H26.1954C26.5679 35.3906 26.8693 35.0892 26.8693 34.7168V30H36.9767C38.0914 30 38.9982 30.9068 38.9982 32.0215V50.9785C38.9982 52.0932 38.0914 53 36.9767 53H23.5001C22.3854 53 21.4786 52.0932 21.4786 50.9785V49.3856L21.5661 49.4892C21.8971 49.8834 22.3242 50.2012 22.8 50.4085L25.2755 51.4818C25.9732 51.7831 26.7809 51.6763 27.3785 51.1758C27.9688 50.6803 28.2248 49.9071 28.0458 49.1569L27.4194 46.5353ZM35.629 34.043H28.8907C28.5183 34.043 28.2169 34.3443 28.2169 34.7168C28.2169 35.0892 28.5183 35.3906 28.8907 35.3906H35.629C36.0015 35.3906 36.3029 35.0892 36.3029 34.7168C36.3029 34.3443 36.0015 34.043 35.629 34.043ZM35.629 38.1309H24.8478C24.4753 38.1309 24.174 38.4322 24.174 38.8047C24.174 39.1771 24.4753 39.4785 24.8478 39.4785H35.629C36.0015 39.4785 36.3029 39.1771 36.3029 38.8047C36.3029 38.4322 36.0015 38.1309 35.629 38.1309ZM30.2384 47.5645H35.629C36.0015 47.5645 36.3029 47.2631 36.3029 46.8906C36.3029 46.5182 36.0015 46.2168 35.629 46.2168H30.2384C29.866 46.2168 29.5646 46.5182 29.5646 46.8906C29.5646 47.2631 29.866 47.5645 30.2384 47.5645ZM35.629 43.5215C36.0015 43.5215 36.3029 43.2201 36.3029 42.8477C36.3029 42.4752 36.0015 42.1738 35.629 42.1738H27.5431C27.1706 42.1738 26.8693 42.4752 26.8693 42.8477C26.8693 43.2201 27.1706 43.5215 27.5431 43.5215H35.629Z" fill="white"/>
<path d="M344.5 78.2451C344.851 78.2451 345.135 77.9609 345.135 77.6104C345.135 77.2598 344.851 76.9756 344.5 76.9756C344.149 76.9756 343.865 77.2598 343.865 77.6104C343.865 77.9609 344.149 78.2451 344.5 78.2451Z" fill="white"/>
<path d="M344.5 68C340.908 68 338 70.9072 338 74.5C338 78.0924 340.907 81 344.5 81C348.092 81 351 78.0928 351 74.5C351 70.9076 348.093 68 344.5 68ZM344.5 79.9844C341.469 79.9844 339.016 77.5315 339.016 74.5C339.016 71.4689 341.469 69.0156 344.5 69.0156C347.531 69.0156 349.984 71.4685 349.984 74.5C349.984 77.5311 347.531 79.9844 344.5 79.9844Z" fill="white"/>
<path d="M344.5 71.2627C343.38 71.2627 342.469 72.1739 342.469 73.2939C342.469 73.5744 342.696 73.8018 342.977 73.8018C343.257 73.8018 343.484 73.5744 343.484 73.2939C343.484 72.7339 343.94 72.2783 344.5 72.2783C345.06 72.2783 345.516 72.7339 345.516 73.2939C345.516 73.854 345.06 74.3096 344.5 74.3096C344.22 74.3096 343.992 74.5369 343.992 74.8174V76.0869C343.992 76.3674 344.22 76.5947 344.5 76.5947C344.78 76.5947 345.008 76.3674 345.008 76.0869V75.2609C345.883 75.0349 346.531 74.2387 346.531 73.2939C346.531 72.1739 345.62 71.2627 344.5 71.2627Z" fill="white"/>
</g>
<defs>
<clipPath id="clip0">
<path d="M0 0H375V110H32C14.3269 110 0 95.6731 0 78V0Z" fill="white"/>
</clipPath>
</defs>
</svg>
