<svg width="59" height="59" viewBox="0 0 59 59" fill="none" xmlns="http://www.w3.org/2000/svg">
<g clip-path="url(#clip0)">
<path d="M50.0217 0H8.97829C4.02735 0 0 4.02735 0 8.9783V37.1957C0 42.1465 4.02735 46.1739 8.97829 46.1739H36.6647L49.1163 58.6254C49.36 58.8692 49.6883 59 50.0218 59C50.186 59 50.3553 58.9692 50.5118 58.9025C50.9915 58.7049 51.3045 58.2355 51.3045 57.7174V46.0815C55.65 45.4582 59.0001 41.7104 59.0001 37.1956V8.9783C59 4.02735 54.9725 0 50.0217 0ZM29.4999 38.4782C27.3785 38.4782 25.6521 36.7519 25.6521 34.6304C25.6521 32.5089 27.3785 30.7826 29.4999 30.7826C31.6214 30.7826 33.3478 32.5089 33.3478 34.6304C33.3478 36.7519 31.6214 38.4782 29.4999 38.4782ZM34.6202 11.8205L33.5145 24.4978C33.3683 26.5731 31.6008 28.2173 29.4999 28.2173C27.3759 28.2173 25.6111 26.573 25.4649 24.4747L24.3823 11.8359C24.3054 10.7585 24.6748 9.70169 25.3982 8.92443C26.1267 8.142 27.1528 7.69565 28.2174 7.69565H30.7826C31.8471 7.69565 32.8733 8.142 33.6017 8.92443C34.3251 9.70421 34.6971 10.7585 34.6202 11.8205Z" fill="#FEA241"/>
</g>
<defs>
<clipPath id="clip0">
<rect width="59" height="59" fill="white"/>
</clipPath>
</defs>
</svg>
