<svg width="59" height="59" viewBox="0 0 59 59" fill="none" xmlns="http://www.w3.org/2000/svg">
<path d="M1.83296 21.8499C3.98127 20.0437 7.26833 20.2589 9.13351 22.4829L10.2544 23.809L2.30957 30.4752L1.23927 29.1539C-0.601593 26.9645 -0.368704 23.6946 1.83296 21.8499Z" fill="#E9572F"/>
<path d="M24.2712 40.3936L24.8625 41.0933C25.3756 41.7077 25.7453 42.442 25.9309 43.2202L27.5379 49.9452C27.6898 50.5815 27.4686 51.25 26.9674 51.6703C26.4795 52.0803 25.7913 52.1994 25.1696 51.9337L18.8244 49.1822C18.0902 48.8631 17.4318 48.372 16.9187 47.7626L16.3253 47.0606L24.2712 40.3936Z" fill="#E9572F"/>
<path d="M12.4849 26.4482L22.0405 37.7543L14.0951 44.4213L4.54011 33.1144L12.4849 26.4482Z" fill="#E9572F"/>
<path d="M15.6697 7.66353L22.236 1.42462C22.8567 0.836121 23.6204 0.489496 24.4253 0.264328V10.3711H14.1634C14.3779 9.34434 14.9011 8.39319 15.6697 7.66353Z" fill="#E9572F"/>
<path d="M29.2948 42.4167C28.9859 41.1237 28.3698 39.8999 27.5157 38.877L14.0555 22.95V13.8281H26.1552C27.1106 13.8281 27.8837 13.055 27.8837 12.0996V0H53.8114C56.6708 0 58.9969 2.32612 58.9969 5.18555V53.8145C58.9969 56.6739 56.6708 59 53.8114 59H19.2411C16.3817 59 14.0555 56.6739 14.0555 53.8145V49.7284L14.28 49.994C15.1291 51.0052 16.2246 51.8204 17.445 52.3522L23.7953 55.1054C25.5851 55.8783 27.6569 55.6045 29.1901 54.3204C30.7043 53.0494 31.3609 51.066 30.9018 49.1417L29.2948 42.4167ZM50.3544 10.3711H33.0692C32.1138 10.3711 31.3407 11.1442 31.3407 12.0996C31.3407 13.055 32.1138 13.8281 33.0692 13.8281H50.3544C51.3098 13.8281 52.0829 13.055 52.0829 12.0996C52.0829 11.1442 51.3098 10.3711 50.3544 10.3711ZM50.3544 20.8574H22.6981C21.7427 20.8574 20.9696 21.6305 20.9696 22.5859C20.9696 23.5413 21.7427 24.3145 22.6981 24.3145H50.3544C51.3098 24.3145 52.0829 23.5413 52.0829 22.5859C52.0829 21.6305 51.3098 20.8574 50.3544 20.8574ZM36.5262 45.0566H50.3544C51.3098 45.0566 52.0829 44.2835 52.0829 43.3281C52.0829 42.3727 51.3098 41.5996 50.3544 41.5996H36.5262C35.5708 41.5996 34.7977 42.3727 34.7977 43.3281C34.7977 44.2835 35.5708 45.0566 36.5262 45.0566ZM50.3544 34.6855C51.3098 34.6855 52.0829 33.9124 52.0829 32.957C52.0829 32.0016 51.3098 31.2285 50.3544 31.2285H29.6122C28.6568 31.2285 27.8837 32.0016 27.8837 32.957C27.8837 33.9124 28.6568 34.6855 29.6122 34.6855H50.3544Z" fill="#E9572F"/>
</svg>
